<?xml version="1.0" encoding="utf-8"?>
<!-- Generator: Adobe Illustrator 24.0.1, SVG Export Plug-In . SVG Version: 6.00 Build 0)  -->
<svg version="1.1" baseProfile="basic" id="Layer_2"
	 xmlns="http://www.w3.org/2000/svg" xmlns:xlink="http://www.w3.org/1999/xlink" x="0px" y="0px" viewBox="0 0 612 500.3"
	 xml:space="preserve">
<path fill="none" stroke="#21409A" stroke-width="1.7851" stroke-miterlimit="10" d="M160.1,230c-4.1,7.8-11.8,13-20.6,13
	c-13.2,0-23.8-11.7-23.8-26.1s10.7-26.1,23.8-26.1c8.4,0,15.7,4.7,20,11.8"/>
<ellipse fill="none" stroke="#21409A" stroke-width="1.7851" stroke-miterlimit="10" cx="195.6" cy="216.9" rx="23.8" ry="26.1"/>
<path fill="none" stroke="#21409A" stroke-width="1.7851" stroke-miterlimit="10" d="M285.2,216.8l47.1,0.1
	c0-14.4-10.7-26.1-23.8-26.1c-13.2,0-23.8,11.7-23.8,26.1s10.7,26.1,23.8,26.1l35.5-0.3l41.6-51.5"/>
<ellipse fill="none" stroke="#21409A" stroke-width="1.7851" stroke-miterlimit="10" cx="471.7" cy="216.9" rx="23.8" ry="26.1"/>
<line fill="none" stroke="#21409A" stroke-width="1.7851" stroke-miterlimit="10" x1="232.2" y1="191.2" x2="232.2" y2="242.4"/>
<path fill="none" stroke="#21409A" stroke-width="1.7851" stroke-miterlimit="10" d="M270.9,242l-0.3-34.9c0,0,0-15-10.7-15.9
	c-19.4-1.5-27.7,14.8-27.7,14.8"/>
<path fill="none" stroke="#21409A" stroke-width="1.7851" stroke-miterlimit="10" d="M327.4,236.1"/>
<line fill="none" stroke="#21409A" stroke-width="1.7851" stroke-miterlimit="10" x1="343.7" y1="192" x2="384.8" y2="243.6"/>
<path fill="none" stroke="#21409A" stroke-width="1.7851" stroke-miterlimit="10" d="M431.9,197.3c0,0-3.1-6.8-15.4-6.8
	c-12.2,0-18,7.3-17.8,12.9c0.2,5.6,2.2,12.2,17.2,13.2c15,0.9,19,5.4,19.4,12c0.5,6.6-4.4,14-18.2,14.1c-11.8,0.1-18.9-7.6-18.9-7.6
	"/>
<path fill="none" stroke="#21409A" stroke-width="1.7851" stroke-miterlimit="10" d="M512.1,169.9l-0.2,64.3c0,0-0.2,4,1.6,5.9
	c4.3,4.4,11.1,1.2,11.1,1.2"/>
</svg>
