<?xml version="1.0" encoding="utf-8"?>
<!-- Generator: Adobe Illustrator 24.0.1, SVG Export Plug-In . SVG Version: 6.00 Build 0)  -->
<svg version="1.1" id="Layer_1" xmlns="http://www.w3.org/2000/svg" xmlns:xlink="http://www.w3.org/1999/xlink" x="0px" y="0px"
	 viewBox="0 0 612 500.3" style="enable-background:new 0 0 612 500.3;" xml:space="preserve">
<style type="text/css">
	.st0{fill:#FFFFFF;}
</style>
<g>
	<path d="M177.6,239.8c-0.5-1.7-0.9-3.3-1.6-4.8c-0.3-0.7-0.5-1.4-0.7-2.1c-0.3-0.9-0.6-1.9-1.1-2.8c-0.5-1-0.8-2.1-1.2-3.1
		c-0.3-0.8-0.6-1.6-0.9-2.3c-0.1-0.3-0.2-0.7-0.3-1.1c1.4-0.2,2.8-0.7,4.1-0.7c0.5-0.5,1.2-0.1,1.9-0.4c0.6-0.3,1.3-0.1,1.9-0.3
		c0.6-0.2,1.2-0.1,1.7-0.2c0.5-0.1,1.1-0.1,1.6-0.2c0.6-0.2,1.2-0.1,1.8-0.2c0.6-0.2,1.3-0.1,1.8-0.2c0.7-0.2,1.3,0,1.9-0.2
		c0.6-0.2,1.3,0,1.8-0.2c0.8-0.2,1.5-0.1,2.3-0.2c0.8-0.2,1.7,0,2.5-0.2c0.8-0.2,1.5-0.2,2.2-0.2c0.8,0.4,0.6,1.2,1.1,1.7
		c0.5,1.6,1.2,3.2,1.7,4.8c0.4,1.5,1,2.9,1.5,4.4c0.3,1,0.7,1.9,1,2.9c0.2,0.6,0.4,1.2,0.6,1.8c0.1,0.2,0,0.4,0,0.7
		c-0.7,0-1.4,0-2.1,0c-1.6,0.1-3.2,0.1-4.7,0.3c-0.6,0.1-1.2,0.1-1.8,0.2c-0.6,0.2-1.2,0.1-1.8,0.2c-1.1,0.2-2.1,0.2-3.2,0.5
		c-1.1,0.2-2.2,0.3-3.2,0.6c-0.6,0.2-1.4,0.1-2,0.3c-0.9,0.2-1.9,0.3-2.8,0.6c-0.8,0.2-1.6,0.4-2.4,0.5
		C178.6,239.6,178.1,239.7,177.6,239.8z"/>
	<path d="M210.5,334.7c-7.8,3-15.5,5.7-23.3,8c-0.7-0.4-0.7-1-0.9-1.6c-0.6-1.5-1.1-3.1-1.7-4.6c-0.3-0.8-0.6-1.6-0.9-2.4
		c-0.4-1.2-0.8-2.4-1.3-3.5c-0.4-1.2-0.9-2.3-1.1-3.6c0-0.1-0.2-0.2-0.3-0.4c0.8-0.3,1.6-0.6,2.3-0.8c1.1-0.2,2.2-0.6,3.2-0.9
		c1.5-0.5,3.1-0.9,4.6-1.4c1.9-0.6,3.7-1.2,5.6-1.8c1.8-0.7,3.7-1.3,5.4-2.1c0.9-0.4,1.9-0.7,2.8-1.2c0.5,1.3,0.9,2.7,1.4,4
		c0.5,1.4,1.1,2.7,1.5,4.1c0.4,1.4,1.1,2.7,1.2,4.1C209.8,331.9,210.1,333.3,210.5,334.7z"/>
	<path d="M143.3,233.2c0.8-0.4,1.6-0.8,2.5-1.1c1.2-0.5,2.4-0.9,3.6-1.4c1.4-0.5,2.9-1.1,4.3-1.6c2.1-0.7,4.3-1.4,6.4-2.1
		c0.7-0.2,1.4-0.3,2-0.6c0.7-0.3,1.6-0.2,2.3-0.5c0.6-0.2,1.1-0.2,1.8-0.2c0.2,0.5,0.6,0.9,0.7,1.5c0.3,1.3,0.9,2.4,1.2,3.7
		c0.5,1.7,1.2,3.3,1.7,5c0.4,1.1,0.8,2.3,1.4,3.4c0.3,0.6,0.6,1.3,0.9,1.9c-0.9,0.3-1.7,0.5-2.5,0.8c-1.6,0.5-3.2,0.9-4.7,1.4
		c-1.1,0.3-2.2,0.7-3.3,1c-2,0.5-3.9,1.2-5.9,1.9c-1.2,0.4-2.4,0.8-3.6,1.3c-1.4,0.6-2.7,1.2-4.2,1.8c-0.2-0.7-0.5-1.5-0.7-2.2
		c-0.7-2.9-1.7-5.7-2.7-8.5c-0.5-1.5-0.9-3-1.4-4.5C143.2,233.9,143.3,233.6,143.3,233.2z"/>
	<path d="M195.8,215.7c-0.4,0.2-0.8,0.4-1.2,0.4c-1.3,0-2.6,0-3.8,0.2c-0.6,0.1-1.2,0.1-1.8,0.2c-0.6,0.2-1.3,0.1-1.8,0.2
		c-0.6,0.2-1.2,0.1-1.7,0.2c-0.6,0.2-1.2,0.1-1.7,0.2c-1,0.2-2.1,0.3-3.1,0.5c-0.6,0.1-1.2,0-1.7,0.2c-0.6,0.2-1.2,0-1.6,0.2
		c-0.6,0.3-1.2,0.1-1.8,0.3c-0.6,0.2-1.2,0.3-1.8,0.4c-1,0.2-2.1,0.5-3.1,0.7c-0.1,0-0.2,0.1-0.3,0.2c-0.4-1-0.8-2.1-1.2-3.1
		c-0.4-1-0.7-2-1.1-3c-0.4-1-0.8-2-1.3-3c-0.4-1-0.8-2-1.2-3c-0.5-1-1-1.9-1.4-2.9c0.4-0.4,0.9-0.4,1.3-0.5c0.4,0,0.8-0.2,1.1-0.2
		c0.4,0,0.8-0.1,1.2-0.2c0.7-0.2,1.4-0.2,2.2-0.3c0.5-0.1,0.9-0.1,1.4-0.2c0.5-0.1,1,0.2,1.4-0.2c0,0,0.1,0,0.2,0
		c0.9-0.1,1.9-0.1,2.8-0.2c0.4,0,0.8-0.3,1.3-0.2c0.4,0.1,0.8,0.1,1.1-0.2c0,0,0.1,0,0.1,0c1-0.1,2-0.1,3.1-0.2
		c0.5,0,1.1-0.1,1.6-0.2c0.5-0.1,1,0.2,1.5-0.2c0,0,0.1,0,0.1,0c1.1,0.2,2.2-0.3,3.3-0.2c1.3,2.4,2.9,4.6,4.2,6.9
		C193.3,211,194.6,213.3,195.8,215.7z"/>
	<path d="M182.6,348.5c0.7,1.7,1.5,3.3,2.1,4.9c1.2,3,2.8,5.8,4.1,8.8c0.1,0.2,0.1,0.4,0.2,0.7c-1.3,0.1-2.5,0.4-3.8,0.5
		c-0.6,0-1.2,0-1.7,0.2c-0.6,0.2-1.2,0-1.7,0.2c-0.5,0.2-1.1,0.1-1.6,0.2c-0.5,0.2-1,0.1-1.5,0.2c-0.6,0.2-1.3,0-1.9,0.2
		c-0.7,0.2-1.3,0-1.9,0.2c-0.7,0.2-1.3,0-1.9,0.2c-0.6,0.2-1.2,0.1-1.8,0.2c-0.4,0.1-0.8,0.3-1.3,0.2c-0.4,0-0.8,0-1.2,0.2
		c-0.4,0.2-0.9,0-1.3,0c-0.4,0-0.8,0.2-1.3,0.3c-0.7-1-1.5-2-2.2-3c-0.7-0.9-1.3-1.9-1.9-2.8c-0.1-0.2-0.2-0.4-0.3-0.5
		c-0.7-1.2-1.3-2.5-2-3.7c-0.7-1.3-1.5-2.6-2.2-3.9c0-0.1,0-0.1,0-0.3c0.9,0.1,1.7-0.4,2.7-0.3c1.3,0.1,2.5-0.4,3.7-0.2
		c0.7-0.4,1.5-0.1,2.3-0.3c0.4-0.1,0.8-0.2,1.3-0.2c0.4,0,0.8,0.1,1.2-0.1c0.4-0.2,0.9,0,1.3-0.1c0.3,0,0.6-0.2,0.9-0.2
		c0.3-0.1,0.7,0.1,0.9-0.2c0,0,0.1,0,0.2,0c0.7,0.1,1.3-0.2,1.9-0.2c0.6,0,1.3,0,1.9-0.3c0.6-0.3,1.3-0.1,2-0.4
		c0.6-0.2,1.4-0.1,2-0.3C180.7,348.7,181.6,348.5,182.6,348.5z"/>
	<path d="M232.8,239.8c-0.4-0.6-1.1-0.1-1.6-0.6c-1,0-1.9-0.4-2.8-0.5c-1-0.1-2-0.5-3.1-0.8c-1.2-0.3-2.3-0.7-3.5-0.8
		c-1-0.1-2-0.3-3-0.5c-0.7-0.1-1.3,0-1.9-0.2c-0.8-0.2-1.6-0.1-2.4-0.2c-1.7-0.4-3.3-0.1-5-0.2c-0.1,0-0.1,0-0.3-0.1
		c-0.1-0.3-0.4-0.7-0.4-1c-0.2-1.5-0.7-2.9-1.1-4.4c-0.5-1.8-1.3-3.5-1.9-5.3c-0.4-1-0.9-2-1.3-2.9c-0.4-0.9-0.8-1.8-1.2-2.7
		c0.8,0,1.7-0.3,2.5,0.1c0.1,0,0.2,0.1,0.3,0c1.2-0.2,2.4,0.3,3.6,0.2c0.5,0,0.9,0.3,1.4,0.2c0.5-0.1,1-0.1,1.4,0.2
		c0.8-0.2,1.6,0.3,2.4,0.2c0.3,0,0.7,0.1,1,0.2c0.3,0.1,0.6-0.1,1,0.2c0.2,0.1,0.6,0,0.9,0.1c0.3,0,0.6,0.2,0.8,0.2
		c0.6-0.1,1.2,0.1,1.8,0.3c0.6,0.1,1.2,0.3,1.7,0.4c0.9,0.2,1.7,0.3,2.6,0.5c0.7,0.1,1.4,0.3,2.3,0.6c0.3,0.7,0.8,1.5,1,2.3
		c0.2,0.8,0.7,1.5,0.9,2.2c0.6,1.6,1.3,3.2,1.8,4.9c0.2,0.7,0.6,1.3,0.9,2c0.3,0.8,0.5,1.7,0.7,2.5c0.2,0.7,0.4,1.3,0.6,2
		c0,0.2,0.1,0.4,0.1,0.6C232.9,239.7,232.9,239.8,232.8,239.8z"/>
	<path d="M209.7,240.1c0.2-0.5,0.7-0.6,1-0.4c0.4,0.3,0.8,0.2,1.3,0.2c0.7,0,1.4-0.1,2,0c1.1,0.1,2.1,0.3,3.2,0.2
		c0.5,0.4,1.1,0.2,1.7,0.2c0.3,0,0.7,0.2,1,0.2c0.4,0,0.7,0.1,1,0.2c0.4,0.2,1,0.1,1.5,0.2c0.6,0.2,1.4,0.1,2,0.3
		c1.1,0.3,2.2,0.5,3.3,0.7c1.1,0.3,2.1,0.6,3.2,0.8c0.9,0.2,1.7,0.5,2.5,0.8c0.3,0.1,0.6,0.4,0.9,0.6c0.2,0.9,0.2,1.8,0.5,2.6
		c0,0.1,0,0.1,0,0.2c-0.2,1,0.3,2,0.2,3.1c0,0.5,0.2,1.1,0.2,1.6c0,0.5-0.1,1.1,0,1.6c0.4,1,0.1,1.9,0.2,2.8c0.1,0.9,0,1.9,0,2.8
		c-1.4-0.3-2.6-0.8-3.9-1.2c-1.3-0.4-2.6-0.7-3.8-1c-1.3-0.3-2.7-0.6-4-0.9c-1.3-0.3-2.7-0.4-4.1-0.5c-1.4-0.1-2.8-0.3-4.2-0.3
		c-1.4,0.1-2.8,0-4.2,0c-0.1-0.1-0.2-0.2-0.3-0.3c0-0.4,0-1,0-1.5c0-1.2-0.1-2.5,0-3.7c0.1-1.9-0.1-3.7-0.3-5.5
		c-0.1-1.1-0.4-2.2-0.7-3.3C209.9,240.5,209.8,240.3,209.7,240.1z"/>
	<path d="M141.7,228.6c-0.1-0.7-0.3-1.5-0.6-2.2c-0.2-0.7-0.2-1.5-0.6-2.1c0.1-0.5-0.1-1-0.2-1.5c-0.1-0.5,0-1.2-0.3-1.6
		c-0.3-0.5-0.1-1-0.3-1.4c-0.3-0.4,0.1-1.1-0.3-1.6c0-1.3-0.6-2.5-0.5-3.9c0-0.3-0.2-0.5-0.3-0.8c0.6-0.5,1.3-0.7,1.9-1.1
		c0.1,0,0.2,0,0.3-0.1c1.1-0.5,2.3-1,3.4-1.6c1.2-0.6,2.4-1,3.7-1.5c0.7-0.3,1.4-0.5,2.2-0.7c1-0.3,1.9-0.6,2.9-0.9
		c1.1-0.3,2.3-0.5,3.4-0.9c0.6-0.2,1.3-0.2,2.1-0.3c0.6,1.7,1.4,3.2,1.9,4.9c0.2,0.8,0.7,1.4,1,2.2c0.5,1.2,1,2.3,1.5,3.6
		c0.3,1,0.8,1.9,1.3,3c0,0.1,0,0.3,0,0.6c-0.1,0.1-0.3,0.3-0.4,0.3c-1.6,0.3-3.2,0.7-4.8,1.3c-1.2,0.4-2.4,0.6-3.5,1
		c-1.5,0.5-3.1,1.1-4.6,1.7c-0.7,0.3-1.5,0.5-2.2,0.7c-1.5,0.6-3.1,1.1-4.5,1.8C143.4,227.9,142.6,228.2,141.7,228.6z"/>
	<path d="M238.3,323.9c0.1,1.1,0.4,2,0.3,3c0.4,0.7,0.1,1.5,0.2,2.2c0.2,1.1,0,2.3,0.3,3.4c0.2,0.9,0,1.9,0.2,2.7
		c0.4,1.4,0.1,2.7,0.2,4.1c-5.9,5-12.5,9-19.4,12.7c-0.4-0.4-0.4-1-0.5-1.6c-0.1-0.3,0-0.7,0-1c0.1-1.1-0.3-2.2-0.5-3.3
		c-0.2-0.8-0.3-1.7-0.6-2.5c-0.3-1-0.5-2-0.8-3c-0.4-1.1-0.5-2.2-0.8-3.3c0-0.1-0.1-0.3-0.2-0.4c0.4-0.5,0.9-0.8,1.5-1.1
		c0.9-0.4,1.8-0.8,2.6-1.3c1.1-0.7,2.3-1.2,3.4-2c0.7-0.5,1.5-0.8,2.2-1.2c1.3-0.8,2.5-1.6,3.8-2.3c1.2-0.7,2.4-1.4,3.6-2.2
		c1.2-0.7,2.3-1.5,3.5-2.2C237.6,324.3,237.9,324.1,238.3,323.9z"/>
	<path d="M205.5,254.6c-1.7-0.2-3.2,0.4-4.7,0.2c-0.8,0.3-1.8,0.1-2.6,0.3c-0.7,0.1-1.4,0-2,0.2c-1,0.4-2-0.1-2.9,0.4
		c0,0-0.1,0-0.1,0c-1.1,0.1-2.1,0-3.2,0.3c-1.2,0.3-2.5,0-3.6,0.6c-1-0.1-1.8,0.5-2.7,0.5c-0.4,0-0.7,0.2-1.1,0.3
		c-0.4-1.2-0.5-2.4-0.7-3.6c-0.3-1.4-0.8-2.8-1.1-4.2c-0.5-2-1.2-3.9-2.2-5.7c0.8,0,1.5-0.4,2.2-0.3c0.4,0,0.8-0.1,1.1-0.2
		c0.4-0.1,0.8,0.2,1.2-0.2c0.1-0.1,0.3,0,0.4,0c0.6-0.1,1.3-0.2,1.9-0.2c0.6,0,1.2-0.2,1.8-0.3c0.9-0.1,1.8-0.2,2.7-0.4
		c1.1-0.2,2.2-0.5,3.3-0.4c0.5-0.4,1.2-0.1,1.7-0.3c0.6-0.2,1.1-0.2,1.7-0.2c0.4,0,0.8-0.3,1.3-0.2c0.4,0.1,0.8,0.1,1.2-0.2
		c0.1-0.1,0.2,0,0.3,0c0.5,0,1.1,0,1.6-0.2c0.5-0.2,1,0,1.5-0.2c0.5-0.2,1.2,0,1.8,0c0.1,1,0.1,2,0.3,3c0.2,0.8,0,1.7,0.2,2.5
		c0.2,0.9,0,1.8,0.2,2.6c0.2,1,0,2.1,0.2,3.1C205.5,252.5,205.4,253.5,205.5,254.6z"/>
	<path d="M224.3,287.8c2.8,3.6,5.6,7.1,7.7,11.1c-0.7,1-2,1.6-3.1,2.3c-1.8,1.1-3.7,2.1-5.4,3.3c-0.8,0.6-1.8,1-2.6,1.5
		c-1.6,1-3.3,1.7-5,2.6c-1.6,0.9-3.2,1.7-4.8,2.6c-0.2,0.1-0.4,0.2-0.7,0.3c-2-4.1-3.8-8.4-6.2-12.4c1.1-0.8,2.4-1.3,3.6-2
		c0.9-0.5,1.8-1,2.7-1.3c1.6-0.5,2.8-1.5,4.2-2.4c1.2-0.8,2.4-1.4,3.6-2.1c1.5-0.9,3-1.9,4.5-2.8
		C223.3,288.3,223.8,288.1,224.3,287.8z"/>
	<path d="M149.5,252.9c0.6-0.2,1.2-0.3,1.7-0.6c2.3-1.2,4.9-1.7,7.3-2.7c1.9-0.7,3.7-1.3,5.6-1.9c1.4-0.5,2.9-0.9,4.3-1.2
		c0.7-0.2,1.4-0.4,2.1-0.5c0.8-0.1,1.6-0.4,2.5-0.3c0,0.8,0.5,1.6,0.8,2.4c0.4,1.2,0.7,2.5,1.1,3.7c0.5,1.4,0.7,2.9,1.2,4.3
		c0.2,0.5,0.3,1.1,0.4,1.7c-0.2,0.1-0.5,0.4-0.7,0.5c-2,0.6-4,1.5-6,2.2c-1.2,0.4-2.4,0.8-3.7,1.2c-1,0.4-2,0.7-3,1.1
		c-1.2,0.4-2.4,0.9-3.6,1.4c-0.6,0.2-1.2,0.5-1.8,0.8c-0.9,0.4-1.8,0.7-2.8,1.1c-0.8-1-1-2.2-1.5-3.2c-0.5-1.1-1-2.2-1.6-3.3
		c-0.5-1.1-1-2.2-1.3-3.3C150.5,255,149.5,254.1,149.5,252.9z"/>
	<path d="M114.9,243.6c-0.3-1-0.2-1.9-0.4-2.8c-0.1-1,0-2.1-0.2-3.1c-0.3-1.6-0.2-3.1-0.2-4.6c0-1.6-0.4-3.2-0.2-4.9
		c0.4-0.3,0.9-0.6,1.3-0.9c2.1-1.7,4.3-3.2,6.5-4.7c1.4-0.9,2.9-1.8,4.3-2.6c1.3-0.8,2.7-1.5,4-2.3c0.8-0.4,1.5-0.8,2.3-1.3
		c0.2-0.1,0.3-0.1,0.6-0.1c0,0.4,0,0.7,0,1c0,0.7,0,1.4,0.1,2c0.2,0.6-0.1,1.2,0.3,1.8c0.2,0.4,0.1,1,0.2,1.5
		c0.2,0.6,0.2,1.3,0.3,1.9c0.1,0.6,0.3,1.2,0.4,1.9c0.2,1,0.6,1.9,0.9,2.9c0.2,0.6,0.4,1.1,0.6,1.7c-0.3,0.2-0.6,0.4-0.9,0.5
		c-2.2,1.1-4.4,2.2-6.6,3.4c-1.3,0.7-2.6,1.6-3.9,2.4c-0.8,0.5-1.7,0.9-2.5,1.5c-1.6,1.1-3.4,1.9-4.9,3.2
		C116.6,242.5,115.7,243,114.9,243.6z"/>
	<path d="M143.9,255.7c0.2,0.3,0.4,0.6,0.5,0.9c0.4,0.9,0.8,1.8,1.2,2.7c0.3,0.9,0.8,1.8,1.2,2.7c0.6,1.6,1.4,3.1,2.2,4.6
		c0.2,0.4,0.5,0.8,0.8,1.2c-0.3,0.1-0.5,0.2-0.7,0.4c-1.6,1-3.3,1.8-5,2.7c-1.1,0.6-2.3,1.2-3.4,1.8c-1,0.6-2,1.2-3,1.8
		c-1.2,0.8-2.5,1.4-3.6,2.2c-1.1,0.8-2.3,1.6-3.5,2.5c0,0-0.1,0-0.2,0c-0.1,0-0.1,0-0.2-0.1c-1.2-1.4-2.3-2.9-3.5-4.3
		c-1.3-1.6-2.1-3.4-3.3-4.9c-0.1-0.7-0.9-1.2-0.7-2.2c1.5-0.9,3.1-1.9,4.7-2.9c1.3-0.8,2.5-1.6,3.9-2.4c0.9-0.5,1.8-1.2,2.8-1.7
		c2.4-1.2,4.8-2.4,7.2-3.6c0.3-0.1,0.5-0.4,0.8-0.5C142.6,256.3,143.2,256,143.9,255.7z"/>
	<path d="M192.6,201.2c0.2-0.1,0.4-0.3,0.5-0.2c0.6,0.1,1.3-0.2,1.9,0.2c0.2,0.1,0.4,0,0.7,0c1,0,2,0,2.9,0c0.6,0,1.1,0.2,1.7,0.2
		c0.6,0,1.2-0.1,1.7,0c0.6,0.2,1.2,0.1,1.7,0.2c0.5,0.1,0.9,0.2,1.4,0.2c0.5,0.1,1-0.2,1.4,0.2c0.6-0.1,1.2,0.1,1.8,0.2
		c0.7,0.1,1.5,0.1,2.2,0.4c0.4,0.2,1-0.2,1.4,0.2c1-0.1,1.9,0.4,3,0.5c0.3,0.4,0.8,0.8,1.1,1.3c1.7,2.5,3.5,4.9,5.1,7.5
		c0.8,1.2,1.6,2.3,2.3,3.5c0.5,0.7,0.9,1.5,1.3,2.3c0,0.1,0,0.2,0,0.3c-0.4,0.2-0.7,0-1.1-0.1c-0.3-0.1-0.7-0.3-1-0.3
		c-0.4,0-0.7-0.1-1-0.2c-0.6-0.2-1.2-0.1-1.8-0.3c-0.9-0.2-1.7-0.3-2.6-0.5c-0.3-0.1-0.6-0.1-1-0.1c-0.3-0.1-0.6-0.2-0.9-0.2
		c-0.7,0-1.4-0.4-2.2-0.2c-0.6-0.5-1.4,0-2.1-0.4c0,0-0.1,0-0.2,0c-1-0.1-2,0-2.9-0.2c-2.1-0.4-4.1-0.1-6.3-0.2
		c-0.4-0.7-0.8-1.4-1.1-2.1c-0.6-1.1-1-2.3-1.6-3.4c-0.7-1.2-1.4-2.3-2-3.6c-0.3-0.6-0.8-1-1.2-1.5c-0.9-1.1-1.7-2.1-2.5-3.2
		C192.8,201.7,192.7,201.5,192.6,201.2z"/>
	<path d="M391.3,257.6c0.1-0.4,0.2-0.8,0.2-1.1c-0.1-0.9,0.1-1.7,0.3-2.5c0.4-1.5,0.8-3,1.6-4.4c0.6-1.1,1.3-2.1,2.1-3
		c0.8-1,2.5-2.4,3.7-3c1.3-0.7,2.7-1.2,4.2-1.3c0.7-0.1,1.4-0.2,2.2-0.2c2,0.1,3.8,0.5,5.6,1.4c1.6,0.8,3,1.8,4.1,3
		c1.3,1.4,2.2,3.1,3,4.8c0,1.1,0.8,2,0.7,3.1c0.4,0.5,0.2,1.1,0.2,1.7c0.1,0.6,0.2,1.2,0.3,1.9c-8.9,0-17.6,0-26.5,0
		c0.1,0.7,0.2,1.4,0.4,2.1c0.2,1,0.5,1.9,1,2.9c0.6,1.2,1.2,2.5,2,3.2c0.3,0.4,0.6,0.8,1,1.2c1.5,1.3,3.1,2.4,5,2.9
		c0.6,0.2,1.2,0.4,1.9,0.4c6.9,0,13.8,0,20.6,0c0.1,0,0.1,0,0.1,0c3.4-4.2,6.7-8.3,10.2-12.7c0.1-0.2-0.2-0.5-0.4-0.8
		c-0.3-0.4-0.6-0.8-0.9-1.2c-1-1.2-2-2.5-3-3.7c-1-1.2-1.9-2.5-2.9-3.6c-1.2-1.4-2.2-2.9-3.4-4.3c-0.3-0.3-0.5-0.7-0.8-1.1
		c0.7,0,1.4,0,2.1,0c3.5,4.3,6.9,8.7,10.4,13c0.1,0,0.2,0,0.2-0.1c0.9-1,1.7-2,2.5-3c0.2-0.2,0.3-0.5,0.5-0.7c0.8-1,1.7-2,2.5-3.1
		c0.4-0.5,0.8-1,1.3-1.5c0.4-0.5,0.9-1,1.3-1.5c0.3-0.5,0.9-0.9,1.1-1.5c0-0.1,0.2-0.2,0.2-0.2c0.4-0.5,0.8-0.9,1.3-1.4
		c0.6,0,1.3,0,2.1,0c-3.9,4.9-7.8,9.8-11.7,14.6c3.9,4.8,7.7,9.6,11.6,14.6c-0.8,0.1-1.5,0-2.1,0c-3.5-4.4-7.1-8.8-10.6-13.3
		c-0.6,1-1.6,1.8-2.2,2.8c-0.3,0.6-0.8,1-1.3,1.5c-0.8,0.9-1.6,1.9-2.3,3c-0.4,0.6-1,1.1-1.4,1.7c-0.8,1-1.6,2.1-2.5,3.1
		c-0.3,0.4-0.7,0.7-1.1,1.1c-0.9,0.1-1.8-0.2-2.7-0.2c-5.4,0-10.8,0-16.2,0c-0.3,0-0.7-0.1-0.9,0.2c0,0.1-0.2,0.1-0.3,0
		c-0.6-0.4-1.2-0.1-1.8-0.2c-0.9-0.2-1.9-0.3-2.7-0.8c-0.9-0.5-1.8-0.9-2.7-1.4c-1.2-0.8-2.1-1.7-3-2.8c-0.5-0.6-1-1.1-1.3-1.8
		c-0.3-0.7-0.8-1.4-1.1-2.1c-0.2-0.8-0.6-1.5-0.8-2.3c-0.2-0.8-0.4-1.7-0.3-2.6C391.5,258.2,391.6,257.9,391.3,257.6z"/>
	<path d="M258,251.3c-1.3-0.8-2.4-1.4-3.6-2.1c-2.5-1.6-5.3-2.9-8-4.1c-1.3-0.6-2.6-1.3-4-1.8c-0.8-0.3-1.6-0.8-2.5-1.1
		c-0.6-0.2-1.2-0.5-1.8-0.8c-0.5-1.8-0.9-3.5-1.5-5.2c-0.3-1.1-0.9-2.1-1.2-3.2c-0.3-0.9-0.7-1.7-1-2.6c-0.3-1.1-0.8-2.1-1.2-3.1
		c-0.3-0.8-0.7-1.5-1.1-2.3c-0.1-0.1,0-0.3,0-0.6c0.3,0.1,0.5,0.1,0.7,0.2c1.9,0.8,3.8,1.8,5.7,2.5c0.9,0.4,1.8,0.8,2.8,1.1
		c1.4,0.5,2.6,1.3,4,1.8c0.6,0.3,1.3,0.5,1.9,0.9c1.5,0.9,3.1,1.5,4.5,2.4c0.4,0.3,0.7,0.5,0.8,0.9c0.4,1.1,0.8,2.2,1.2,3.3
		c0.2,0.6,0.5,1.2,0.7,1.9c0.2,1,0.7,1.9,0.9,2.9c0.2,1.2,0.6,2.3,1.1,3.4c0.6,1.6,0.9,3.2,1.4,4.8C258.1,250.8,258,251,258,251.3z"
		/>
	<path d="M240.7,260.6c0-0.9-0.1-1.8,0-2.7c0.1-1.6-0.3-3.2-0.2-4.7c-0.3-0.8-0.1-1.6-0.2-2.4c-0.3-1.5-0.2-3-0.8-4.4
		c-0.1-0.3-0.1-0.6-0.1-1c2.3,1,4.5,2,6.7,3.1c2.2,1.1,4.3,2.3,6.5,3.4c2.2,1.2,4.3,2.5,6.5,3.9c-0.1,0.9,0.4,1.8,0.2,2.8
		c0.5,2.4,0.1,4.7,0.2,7.1c0,0.8,0.3,1.5,0.2,2.3c-0.1,0.8,0,1.6,0,2.4c0,0.2,0,0.4,0,0.6c-0.6,0.3-0.8-0.2-1.1-0.4
		c-1.7-1.1-3.5-2.2-5.2-3.3c-1.4-0.9-2.8-1.7-4.2-2.5c-1.4-0.8-2.9-1.4-4.3-2.1c-1.2-0.6-2.5-1.2-3.8-1.8
		C241,260.8,240.8,260.7,240.7,260.6z"/>
	<path d="M249.1,288.1c0.3,0.4,0.6,0.8,0.7,1.3c0.3,1.1,0.8,2.1,1.4,3.2c0.4,0.7,0.6,1.4,0.9,2.1c0.3,0.7,0.5,1.4,0.7,2.1
		c0.5,1.6,0.9,3.2,1.5,4.8c0.1,0.3,0.1,0.7,0.2,1.2c-0.7,1-1.3,2.2-2.2,3.2c-1,1.1-2.1,2.2-3.1,3.3c-0.6,0.7-1.2,1.5-1.9,2
		c-0.9,0.7-1.7,1.6-2.5,2.3c-1.1,0.9-2.2,1.8-3.3,2.8c0,0-0.1,0-0.2,0c-0.2-0.5-0.3-1-0.3-1.5c0-0.9-0.4-1.7-0.6-2.5
		c-0.4-1.7-1-3.3-1.5-4.9c-0.4-1.1-0.8-2.3-1.3-3.4c-0.4-0.9-0.8-1.9-1.1-2.9c-0.1-0.2,0-0.5-0.1-0.8c2.7-1.7,5-3.9,7.1-6.2
		c1-1.1,2-2.3,2.9-3.5C247.4,289.7,248.3,289,249.1,288.1z"/>
	<path d="M102.5,314.1c-0.7-0.3-0.9-0.9-1.3-1.3c-0.9-1-1.9-2-2.8-3c-1-1.2-2-2.4-3-3.6c-0.7-0.9-1.5-1.7-2.3-2.6
		c0.4-1,0.8-2.2,1.4-3.2c1.1-1.8,1.9-3.7,3-5.4c1-1.5,1.8-3.1,2.8-4.6c0.7-1.1,1.5-2.2,2.2-3.3c0.1-0.1,0.2-0.3,0.3-0.4
		c0.9,1.3,1.8,2.6,2.8,3.9c1,1.3,2,2.6,3.1,3.8c1.1,1.2,2.4,2.2,3.3,3.6C108.5,303.1,105.3,308.4,102.5,314.1z"/>
	<path d="M98.5,264.6c1-1.6,2.2-2.8,3.5-4.1c1.4-1.4,2.7-2.8,4.1-4.1c1.5-1.4,3-2.8,4.4-4.2c0.2-0.2,0.5-0.3,0.8-0.5
		c0,0.3,0,0.6,0.1,0.9c0,0.5,0.1,0.9,0.2,1.4c0.3,1.4,0.6,2.9,1.1,4.3c0.2,0.7,0.4,1.4,0.6,2.1c0.2,0.8,0.7,1.5,1,2.3
		c0.3,1.1,0.9,2.1,1.4,3.1c0.2,0.4,0.4,0.9,0.5,1.3c-1.2,1.1-2.2,2.2-3.4,3.2c-1.6,1.3-3,2.7-4.3,4.2c-1.4,1.6-3,3-4.4,4.6
		c0,0-0.1,0-0.2,0c-0.6-0.8-0.8-1.8-1.2-2.7c-0.4-0.9-0.8-1.9-1.1-2.8c-0.4-1-0.8-1.9-1.1-2.9c-0.3-1-0.5-2-0.9-2.9
		C99,266.6,99,265.6,98.5,264.6z"/>
	<path d="M226.1,285.4c0.7-0.6,1.4-1,2-1.5c0.3-0.2,0.6-0.3,0.8-0.6c1.7-1.6,3.3-3.3,4.9-4.9c0.4-0.4,0.8-0.9,1.2-1.4
		c0.4-0.5,0.9-0.9,1.2-1.4c0.6-0.8,1.3-1.5,2.1-2.4c0.9,1,1.8,1.9,2.6,2.9c0.8,1,1.6,1.9,2.4,2.8c1.2,1.5,2.6,2.8,3.5,4.5
		c0.1,0.3,0.4,0.4,0.7,0.7c-0.3,0.3-0.5,0.7-0.8,1c-0.2,0.3-0.5,0.6-0.7,0.9c-2.7,3-5.6,5.8-8.4,8.7c-0.7,0.7-1.5,1.3-2.2,2
		c-0.2,0.2-0.4,0.2-0.7,0.4C232.3,292.9,229.7,289,226.1,285.4z"/>
	<path d="M250.6,229.2c-1.3-0.7-2.5-1.1-3.5-1.8c-0.6-0.4-1.2-0.8-1.9-1.2c-1.3-0.7-2.6-1.5-4-2c-1.9-0.8-3.9-1.6-5.8-2.3
		c-1.3-0.5-2.5-1-3.8-1.5c-0.4-0.2-0.8-0.3-1.3-0.5c-0.5-0.9-1-1.8-1.6-2.7c-1.2-1.9-2.4-3.7-3.7-5.6c-0.7-1-1.4-1.9-2-2.9
		c-0.6-1-1.5-1.9-2.3-2.8c-0.2-0.2-0.4-0.6-0.6-0.9c0.1-0.1,0.1-0.1,0.3-0.3c1,0.4,2,0.7,3.1,1.1c1.2,0.4,2.3,0.9,3.4,1.3
		c1.2,0.4,2.4,1.1,3.7,1.5c0.6,0.2,1.1,0.5,1.7,0.8c2,0.9,4.1,1.7,6.1,2.8c0.7,0.4,1.5,0.7,2.2,1.2c0.5,0.4,1,1,1.4,1.6
		c0.7,1,1.4,2.1,2.1,3.2c0.8,1.2,1.5,2.4,2.3,3.6c0.8,1.2,1.6,2.5,2.3,3.8c0.6,1.1,1.3,2.1,1.9,3.2
		C250.5,228.8,250.5,228.9,250.6,229.2z"/>
	<path d="M243.8,336.3c0-0.9,0-1.7,0-2.5c0-1.2,0-2.3,0-3.5c0-0.7-0.2-1.4-0.2-2c0-0.7,0.1-1.5,0-2.1c-0.1-0.5-0.1-1.1-0.2-1.6
		c-0.2-0.5-0.1-1.1-0.2-1.6c-0.2-0.6-0.2-1.1-0.2-1.7c0-0.2-0.1-0.5-0.2-0.7c1-1,2-1.9,3.1-2.7c0.1-0.1,0.2-0.2,0.3-0.3
		c0.8-0.7,1.4-1.5,2.3-2.1c0.6-0.4,1.1-1.1,1.6-1.7c0.6-0.7,1.3-1.4,2-2c1.3-1.3,2.4-2.7,3.5-4.2c0.1-0.1,0.3-0.3,0.5-0.5
		c0,0.3,0,0.5,0.1,0.8c0.1,0.6,0.2,1.1,0.2,1.7c0.1,0.5-0.2,1.1,0.2,1.6c-0.2,0.8,0.3,1.5,0.2,2.3c-0.1,0.5,0.2,0.9,0.3,1.4
		c0,0.4-0.2,0.9,0.2,1.3c0,0,0,0.1,0,0.2c0.1,0.9,0.1,1.8,0.3,2.6c0.2,0.7,0.2,1.4,0.2,2.2c0,0.2,0.2,0.5,0.3,0.7
		c-0.1,0.2-0.3,0.3-0.4,0.5c-0.9,1-1.9,2-2.8,3c-0.6,0.7-1.3,1.2-1.8,2c-0.6,1-1.7,1.6-2.3,2.7c-0.2,0.3-0.4,0.6-0.8,0.7
		c-0.2,0.1-0.4,0.4-0.6,0.6C247.4,332.8,245.7,334.5,243.8,336.3z"/>
	<path d="M110.3,246.9c-0.7,0.5-1.4,1-2.1,1.6c-0.2,0.2-0.4,0.3-0.6,0.5c-0.7,0.7-1.4,1.4-2.1,2.1c-0.4,0.4-0.8,0.8-1.3,1.1
		c-0.5,0.4-0.9,1-1.4,1.5c-1,1.1-2.1,2.1-3.1,3.1c-0.8,0.8-1.5,1.8-2.2,2.8c0,0-0.1,0-0.2,0.1c-0.1-0.4-0.3-0.8-0.3-1.2
		c-0.1-0.8-0.1-1.7-0.2-2.5c0-0.4-0.1-0.8-0.2-1.1c-0.1-0.4,0.2-0.8-0.2-1.2c0,0,0-0.1,0-0.1c0.2-0.8-0.2-1.6-0.2-2.4
		c0-1.5-0.3-3-0.2-4.5c0-0.3-0.2-0.5-0.3-0.8c1.2-1.4,2.2-2.9,3.5-4.2c0.4-0.5,0.9-1,1.3-1.5c0.4-0.5,0.9-0.9,1.3-1.5
		c0.2-0.4,0.6-0.7,1.1-0.9c0.6-0.3,1-0.9,1.5-1.4c1.5-1.5,3.1-3,4.6-4.5c0.1,0.1,0.2,0.2,0.4,0.4c0,1.2,0,2.5,0,3.8
		c0,0.6,0,1.1,0,1.7c0,1.3,0.2,2.5,0.3,3.7c0.1,1.1,0.2,2.1,0.4,3.2c0.1,0.5,0.2,1.1,0.2,1.6C110.1,246.6,110.2,246.7,110.3,246.9z"
		/>
	<path d="M252.1,284.4c2-3.2,4.1-6.1,6.2-9.1c0,0,0.1,0,0.1,0c0.1,0,0.2,0,0.3,0c1.3,1.1,2.7,2.2,4.1,3.4c1.3,1.2,2.6,2.4,3.9,3.6
		c0,0.3,0,0.5,0,0.7c-0.9,1.9-1.9,3.7-2.6,5.5c-0.8,1.9-2,3.5-3,5.3c-1,1.8-2.1,3.5-3.3,5.3c-0.3-1-0.5-1.8-0.8-2.6
		c-0.1-0.4-0.2-0.8-0.3-1.2c-0.4-1.4-1-2.7-1.5-4.1c-0.3-0.9-0.6-1.9-1.1-2.7c-0.7-1-1.1-2.2-1.7-3.2
		C252.2,285,252.2,284.6,252.1,284.4z"/>
	<path d="M257,236.3c0.5,0.3,0.9,0.6,1.3,0.9c0.9,0.8,1.8,1.5,2.8,2.3c1.3,1,2.4,2.1,3.6,3.2c1.9,1.6,3.8,3.3,5.5,5.1
		c1,1,1.4,2.2,1.8,3.4c0.1,0.4,0.1,0.8,0.2,1.3c0.1,0.4,0.2,0.9,0.4,1.3c0.2,0.4-0.2,0.9,0.3,1.2c0,0,0,0.1,0,0.1
		c-0.2,0.9,0.2,1.8,0.2,2.7c0,1.6,0.4,3.2,0.2,4.7c0,0.2,0.1,0.3,0.2,0.5c0,0.1,0,0.3,0,0.4c0,0.1-0.1,0.1-0.2,0.2
		c-0.4-0.3-0.9-0.6-1.3-0.9c-0.8-0.7-1.7-1.5-2.5-2.2c-0.9-0.9-1.8-1.7-2.8-2.4c-0.2-0.1-0.3-0.3-0.4-0.4c-0.9-0.9-2-1.8-3-2.6
		c-0.4-0.3-0.8-0.8-1.2-1.2c-0.2-0.3-0.4-0.6-0.4-1c0-1-0.4-1.9-0.6-2.9c-0.2-1-0.6-1.9-0.7-2.8c-0.5-2.6-1.6-5-2.3-7.6
		c-0.2-0.8-0.7-1.6-1.2-2.3C256.8,237,256.9,236.7,257,236.3z"/>
	<path d="M263.5,274.2c-0.4-1-0.3-1.9-0.3-2.9c0-2.2,0-4.4,0-6.6c0-0.9-0.2-1.8-0.2-2.7c0-0.9,0-1.9,0-2.8c0-0.2,0-0.4,0-0.8
		c1,1,1.8,1.8,2.6,2.6c1.4,1.3,2.8,2.7,4.2,4c0.7,0.6,1.4,1.2,2,1.9c0.8,0.8,1.6,1.7,2.4,2.5c0,0.4,0,0.7,0,1c0,1.2,0.3,2.4,0.2,3.6
		c-0.1,1.2-0.1,2.4,0,3.6c0,0.6-0.2,1.2-0.2,1.8c-0.1,0.6,0.2,1.3-0.2,1.8c0,0,0,0.1,0,0.1c0.2,1.1-0.4,2.1-0.2,3.2
		c-0.1,0.1-0.2,0.2-0.4,0.3c-0.2-0.2-0.6-0.5-0.7-0.8c-0.8-1.4-1.8-2.5-3-3.6C267.7,278.3,265.6,276.3,263.5,274.2z"/>
	<path d="M261,317.4c-0.1-1.1-0.2-2-0.3-2.9c0-0.4-0.2-0.8-0.2-1.3c-0.1-0.4,0-0.8-0.2-1.2c-0.2-0.4,0-1-0.3-1.5
		c0-1.2-0.4-2.4-0.5-3.6c0-0.7-0.3-1.4-0.5-2.1c-0.2-0.7-0.5-1.4-0.4-2c1.1-1.5,2.1-3,3.2-4.5c0.8-1.1,1.4-2.4,2-3.6
		c0.8-1.5,1.5-3,2.3-4.5c0.3-0.6,0.7-1.2,0.9-1.9c0.1-0.7,0.8-1.2,0.7-2c0-0.1,0.2-0.2,0.3-0.3c0.1,0.1,0.2,0.2,0.3,0.3
		c0.1,0.8,0.2,1.5,0.5,2.3c0.1,0.3,0,0.6,0,0.9c0,0.3,0.2,0.5,0.2,0.8c0.1,1.2,0.4,2.3,0.5,3.5c0.1,0.6,0,1.2,0.2,1.7
		c0.2,0.6,0.1,1.1,0.2,1.6c0.1,0.3,0.2,0.6,0.2,0.9c0,0.5,0.1,1.1,0,1.6c-0.1,0.4-0.3,0.8-0.5,1.2c-0.8,1.7-1.5,3.5-2.4,5.2
		c-1,1.7-1.8,3.6-2.7,5.3c-1,1.7-1.9,3.4-3,5.1C261.4,316.8,261.2,317,261,317.4z"/>
	<path d="M85,281.9c-0.2-0.2-0.3-0.3-0.4-0.4c-0.1-0.7-0.1-1.4-0.2-2c0-0.3-0.2-0.7-0.2-1c-0.1-0.3,0-0.6-0.2-0.9
		c-0.2-0.4-0.1-1-0.2-1.5c-0.2-0.6-0.2-1.4-0.3-2c-0.1-0.4-0.2-0.8-0.2-1.1c0-0.4,0.1-0.7-0.2-1c0,0,0-0.1,0-0.1c0-0.4,0-0.8,0-1.1
		c0-0.3-0.2-0.6-0.2-0.9c-0.2-1.2,0.2-2.2,0.7-3.2c1.3-2.8,2.6-5.5,4.1-8.2c0.5-1,1.1-2,1.7-3c0.5-0.9,1.1-1.9,1.7-2.8
		c0.3-0.6,0.8-1.1,1.3-1.8c0.1,1.1,0.2,2,0.3,2.9c0.1,0.5-0.1,1,0.1,1.5c0.2,0.5-0.1,1.2,0.2,1.6c0.3,0.5-0.1,1.1,0.4,1.4
		c-0.1,0.5,0.1,1.1,0.2,1.6c0.1,0.5,0,1.1,0.3,1.6c0.3,0.5,0.1,1,0.4,1.6c0.2,0.3,0.1,0.9,0.3,1.3c0.1,0.4-0.1,0.8-0.4,1.1
		c-0.9,1-1.6,2.2-2.4,3.3c-0.3,0.4-0.5,0.8-0.7,1.2c-1.5,2.7-2.9,5.5-4.2,8.3c-0.4,0.8-0.6,1.8-1,2.6C85.3,281,85.2,281.4,85,281.9z
		"/>
	<path d="M270.4,244.7c-0.2,0-0.3,0-0.4,0c-0.8-0.7-1.6-1.5-2.5-2.2c-0.4-0.3-0.8-0.6-1.2-1c-0.4-0.3-0.7-0.7-1.2-1
		c-0.7-0.5-1.3-1.1-2-1.7c-1.2-1.2-2.6-2.2-4-3.1c-0.5-0.3-0.9-0.7-1.4-1.1c-0.6-0.5-1.3-0.9-1.9-1.4c-0.2-0.1-0.4-0.2-0.5-0.4
		c-0.6-1.1-1.2-2.2-1.8-3.3c-0.9-1.5-1.7-2.9-2.7-4.3c-0.7-1.1-1.5-2.1-2.1-3.3c-0.1-0.3-0.3-0.6-0.5-0.8c-0.8-1-1.5-2.1-2.2-3.1
		c-0.4-0.6-0.8-1.3-1.2-2c0.5-0.2,0.7,0.1,1,0.3c0.5,0.3,1.1,0.7,1.6,1.1c1.6,1.2,3.1,2.4,4.7,3.6c0.9,0.7,1.7,1.5,2.6,2.1
		c1,0.7,1.8,1.7,2.8,2.6c1.2,1.1,2.4,2.3,3.7,3.4c1,0.9,1.6,2,2.3,3.1c0.7,1,1.3,2.1,2,3.1c0.6,1,1.4,2,1.9,3.2
		c0.3,0.7,0.8,1.3,1.1,2C269.2,241.8,269.8,243.2,270.4,244.7z"/>
	<path d="M357.2,257.2c0,0.4,0,0.6,0,0.9c0,0.6-0.1,1.2-0.2,1.8c-0.1,0.6-0.3,1.2-0.4,1.7c-0.3,1.8-1.4,3.2-2.1,4.8
		c-1.1,1-1.9,2.2-3.1,3.1c-1,0.7-2.1,1.4-3.2,1.9c-0.7,0.4-1.6,0.5-2.4,0.8c-0.8,0.2-1.6,0-2.4,0.4c-0.4,0.2-0.9-0.3-1.4-0.2
		c-0.8,0.1-2.8-0.4-3.8-0.9c-1.2-0.5-2.3-1.3-3.3-2c-0.5-0.4-0.8-0.9-1.3-1.3c-0.7-0.7-1.2-1.4-1.7-2.2c-0.9-1.3-1.5-2.7-2-4.2
		c-0.3-0.8-0.4-1.6-0.5-2.5c0-0.6-0.2-1.2-0.2-1.8c0-0.7,0.3-1.4,0.3-2.2c0-0.7,0.2-1.4,0.4-2.1c0.2-0.7,0.4-1.3,0.7-2
		c0.3-0.6,0.5-1.3,0.9-1.9c0.8-1.2,1.5-2.5,2.7-3.4c1.1-0.8,2.2-1.6,3.3-2.4c0.6,0,1-0.4,1.5-0.6c0.5-0.2,1.1-0.4,1.6-0.4
		c1.2-0.2,2.4-0.5,3.6-0.2c0.9,0.2,1.8,0.3,2.7,0.6c1.5,0.5,2.8,1.2,4,2c1.1,0.8,2,1.7,2.8,2.7c0.8,1,1.5,2.1,2,3.2
		c0.5,0.9,0.7,1.9,1,3C357.1,255,357.3,256.2,357.2,257.2z"/>
	<path d="M89.6,304.1c0,0.4,0,0.7,0,0.9c-0.4,0.9-0.7,1.6-0.9,2.3c-0.5,1.7-1,3.4-1.4,5.2c-0.2,1-0.4,2-0.6,3
		c-0.3,1.2-0.5,2.5-0.7,3.8c-0.5,0.5-0.1,1.2-0.4,1.8c-0.2,0.5-0.1,1.2-0.2,1.9c-0.3-0.9-0.7-1.8-1-2.7c-0.4-1.2-0.9-2.3-1.3-3.4
		c-0.4-1.1-0.8-2.1-1.2-3.1c-0.3-0.7-0.5-1.5-0.8-2.3c-0.4-1.2-0.5-2.7-0.2-3.9c0-0.1,0-0.3,0-0.4c0.1-0.4-0.2-0.9,0.1-1.3
		c0.3-0.4-0.1-0.9,0.2-1.4c0.3-0.3-0.2-0.9,0.3-1.2c-0.1-1,0.4-1.9,0.5-2.9c0-0.5,0.2-0.9,0.2-1.4c0.1-0.5,0.1-1,0.3-1.4
		c0.3-0.4,0-0.9,0.3-1.4c0.3-0.5,0.2-1.2,0.3-1.8c0.2-1.2,0.5-2.3,1-3.5c0.4,0.7,0.4,1.4,0.6,2.1c0.1,0.4,0.1,0.9,0.3,1.2
		c0.3,0.7,0.6,1.3,0.8,2c0.2,0.7,0.6,1.2,0.7,2c0,0.3,0.3,0.5,0.4,0.8c0.8,1.6,1.5,3.2,2.3,4.8C89.4,303.9,89.5,304,89.6,304.1z"/>
	<path d="M509.2,257.6c0,0.4,0,0.8,0,1.2c-0.1,1.5-0.4,2.9-1,4.3c-0.3,0.7-0.6,1.4-1,2.1c-0.4,0.7-0.8,1.4-1.3,1.9
		c-0.8,0.9-1.6,1.7-2.5,2.5c-0.4,0.4-1,0.7-1.5,1c-0.5,0.3-1,0.6-1.5,0.8c-0.7,0.3-1.5,0.6-2.3,0.7c-0.3,0.1-0.7,0.2-1,0.2
		c-0.3,0-0.7,0-1,0c-0.2,0-0.4,0.1-0.6,0.2c-0.1,0-0.1,0.1-0.2,0c-1.1-0.4-2.2-0.1-3.3-0.5c-0.3-0.1-0.7-0.2-1-0.3
		c-0.3-0.1-0.6-0.2-0.9-0.3c-0.8-0.4-1.6-0.8-2.3-1.3c-0.8-0.6-1.5-1.3-2.2-2c-1.1-0.9-1.6-2.1-2.5-3.2c-0.4-1.3-1-2.5-1.4-3.8
		c-0.5-1.9-0.5-3.8-0.4-5.7c0.1-1.5,0.5-2.9,1.1-4.3c0.3-0.6,0.5-1.2,0.9-1.8c0.3-0.5,0.8-1,1.1-1.6c0.4-0.7,1-1.1,1.5-1.7
		c1.2-1.3,2.7-2.3,4.3-2.9c1-0.4,2-0.7,3.1-0.9c0.8-0.1,1.5-0.2,2.3-0.2c2.3,0.1,4.4,0.9,6.4,2.1c1,0.6,1.7,1.5,2.7,2
		c0.3,0.7,1,1,1.3,1.6c0.4,0.9,1.1,1.6,1.5,2.5c0.5,1.1,0.9,2.3,1.3,3.4c0.3,0.8,0.2,1.7,0.3,2.6
		C509.2,256.8,509.2,257.2,509.2,257.6z"/>
	<path d="M385.4,271.9c-0.6,0-1,0-1.6,0c0-0.4,0-0.8,0-1.1c0-4.8,0-9.6,0-14.4c0-0.8-0.2-1.6-0.2-2.4c0-0.8,0.1-1.6,0-2.4
		c-0.2-1.5-0.5-2.9-1.1-4.3c-0.5-1.1-1.3-2.1-2.4-2.7c-0.8-0.4-1.7-0.8-2.6-0.7c-0.5,0-1.1,0-1.6,0c-1.3,0-2.4,0.4-3.6,0.9
		c-1.9,0.7-3.5,1.8-4.8,3.3c-1.2,1.2-2,2.6-2.8,4.2c-0.1,0.3-0.3,0.6-0.5,1c0,6.1,0,12.3,0,18.6c-0.5,0-1,0-1.5,0
		c0-9.7,0-19.4,0-29.2c0.4,0,0.8,0,1.3,0c0.1,0.1,0.1,0.1,0.3,0.3c0,1.9,0,3.9,0,5.9c0.3,0.1,0.4-0.1,0.4-0.2
		c0.7-1.1,1.6-1.9,2.5-2.7c1.2-1,2.5-2,4-2.5c1-0.4,2-0.8,3-1c1.1-0.2,2.3-0.5,3.4-0.3c1.1,0.2,2.2,0.3,3.2,0.9
		c0.7,0.4,2.2,1.6,2.7,2.5c0.2,0.3,0.5,0.6,0.7,1c0.5,1,0.7,2.1,0.9,3.2c0.1,0.6,0.2,1.3,0.2,1.9c0.1,0.6,0.2,1.3,0.2,1.9
		c0,0.6,0,1.3,0,1.9c0,0.7,0,1.4,0,2C385.4,262.4,385.4,267.1,385.4,271.9z"/>
	<path d="M454,267.6c0.4-0.3,0.7-0.6,1.1-0.9c0.7,0.5,1.4,1,2,1.5c1.2,1,2.6,1.6,4.1,2.1c0.9,0.3,1.8,0.4,2.7,0.5
		c0.9,0,1.9,0.1,2.8,0c2.4-0.2,4.6-1,6.4-2.7c0.6-0.5,1-1.2,1.2-1.9c0.2-0.9,0.7-1.8,0.2-2.7c-0.1-0.3-0.1-0.6-0.1-1
		c-0.2-0.4-0.5-0.8-0.7-1.2c-0.7-1.3-2-1.8-3.2-2.3c-0.6-0.3-1.3-0.4-2-0.6c-0.1,0-0.2,0-0.3,0c-1.6-0.1-3.2-0.1-4.8-0.2
		c-2-0.1-3.9-0.5-5.6-1.6c-0.7-0.5-1.6-0.8-1.9-1.7c-1-0.8-1.1-2-1.5-3.1c-0.2-0.5-0.1-1.1,0-1.7c0-0.5-0.2-1,0.2-1.5
		c0.1-0.2,0-0.5,0.1-0.7c0.4-1.3,1.3-2.4,2.3-3.2c1.4-1,2.3-1.6,4.7-2.1c0.3-0.1,0.7-0.1,1-0.2c0.4-0.1,0.8-0.2,1.3-0.2
		c0.4,0,0.9,0,1.4,0c0.6,0,1.1,0.1,1.7,0.2c0.5,0.1,1.1,0.1,1.6,0.3c0.5,0.2,1.1,0.2,1.6,0.5c0.7,0.3,1.4,0.7,2,1.2
		c0.8,0.7,1.6,1.4,2.1,2.4c-0.5,0.2-1,0.4-1.5,0.7c-0.3-1.2-1.3-1.7-2-2.3c-0.5-0.4-1.1-0.5-1.7-0.7c-0.7-0.2-1.4-0.4-2.2-0.4
		c-1.2-0.1-2.5-0.2-3.7,0c-0.8,0.1-1.7,0.2-2.6,0.6c-0.7,0.4-1.5,0.7-2.2,1.1c-0.9,0.6-1.4,1.4-1.9,2.3c-0.1,0.1-0.1,0.2-0.2,0.4
		c-0.1,0.4,0.2,0.9-0.2,1.4c-0.1,0.1-0.1,0.6,0,0.8c0.3,0.5,0.1,1.1,0.2,1.6c0.4,0.7,0.8,1.5,1.4,2.1c0.6,0.7,1.4,0.9,2.1,1.4
		c0.7-0.1,1.2,0.5,1.8,0.5c0.7,0.1,1.5,0.3,2.2,0.4c0.2,0,0.5,0,0.7,0c0.8,0,1.6-0.2,2.3,0.1c0.7,0.2,1.5-0.1,2.1,0.4
		c1.7-0.1,3.1,0.8,4.5,1.6c0.8,0.4,1.4,1.1,1.9,2c0.4,0.6,0.8,1.3,0.9,2c0,0.2,0.2,0.4,0.2,0.6c0,0.5,0,1,0,1.5
		c0,1.8-0.7,3.2-1.9,4.5c-1.4,1.5-3.1,2.4-5.1,2.7c-0.4,0.5-1,0.1-1.4,0.3c-0.4,0.2-1,0.1-1.5,0.1c-0.2,0-0.5,0-0.7,0.1
		c-0.3,0.1-0.7,0.2-0.9,0c-0.3-0.2-0.6-0.2-0.8-0.2c-0.7,0.1-1.5-0.1-2.2-0.2c-0.7-0.1-1.3-0.4-2-0.6c-0.8-0.3-1.6-0.7-2.4-1.1
		c-1.2-0.7-2.4-1.5-3.3-2.6C454,267.8,454,267.7,454,267.6z"/>
	<path d="M323.7,249.1c-0.5,0.2-1,0.4-1.4,0.6c-0.9-1.7-2.2-3.1-3.7-4.1c-0.8-0.5-2.6-1.1-3.8-1.4c-1.4-0.3-2.8-0.3-4.2-0.1
		c-1.7,0.2-3.4,0.9-4.8,2c-0.3,0.2-0.6,0.4-0.9,0.6c-1.3,1.2-2.3,2.6-3.1,4.2c-0.4,0.9-0.7,1.8-1.1,2.7c-0.2,0.4-0.2,0.9-0.2,1.2
		c0,1-0.5,2-0.3,3.1c0.2,0.8,0.3,1.6,0.4,2.4c0.1,1.3,0.7,2.4,1.2,3.6c0.4,0.9,1,1.7,1.6,2.4c0.2,0.3,0.4,0.6,0.6,0.9
		c0.5,0.5,1,1.1,1.7,1.4c0.5,0.2,0.7,0.7,1.2,0.8c0.5,0.1,0.9,0.4,1.3,0.6c0.7,0.4,1.4,0.5,2.1,0.6c0.8,0.2,1.7,0.2,2.5,0.2
		c2.5,0,4.7-0.8,6.8-2.2c0.7-0.5,1.3-1.1,1.9-1.7c0.3-0.4,0.5-0.8,0.7-1.3c0.1-0.3,0.2-0.6,0.3-0.9c0.5,0.2,1,0.3,1.6,0.5
		c0,0.6-0.3,1.2-0.6,1.7c-1.6,2.4-3.3,3.7-6.2,4.7c-1.1,0.4-2.3,0.7-3.5,0.7c-0.3,0-0.7,0.2-1,0.2c-0.5,0-0.9-0.2-1.4-0.2
		c-0.5,0-1,0-1.5-0.2c-0.4-0.2-1-0.1-1.4-0.3c-1.3-0.7-2.8-1.2-3.9-2.3c-0.5-0.4-1-0.8-1.5-1.3c-1.5-1.5-2.6-3.4-3.5-5.3
		c-0.4-0.9-0.6-1.9-0.8-2.9c-0.3-1.6-0.2-3.1-0.2-4.6c0-0.8,0.4-1.6,0.5-2.5c0.2-1.4,0.9-2.6,1.5-3.8c0.4-0.8,1-1.6,1.7-2.3
		c0.8-0.9,1.6-1.8,2.7-2.5c0.6-0.3,1.1-0.7,1.8-0.9c0.6-0.2,1.1-0.6,1.7-0.7c0.6-0.1,1.1-0.4,1.7-0.4c0.4,0,0.8-0.2,1.3-0.2
		c0.4,0,0.8,0,1.2,0c1.9,0.1,3.8,0.4,5.6,1.2c0.7,0.3,1.2,0.7,1.8,1.1c0.6,0.5,1.2,1,1.7,1.5c0.6,0.8,1.2,1.6,1.8,2.4
		C323.6,248.7,323.6,248.9,323.7,249.1z"/>
	<path d="M250.1,280.9c-0.5-0.7-0.9-1.3-1.3-1.9c-0.7-1.1-1.6-2.1-2.4-3.2c-0.8-1.2-1.9-2.2-2.8-3.4c-0.6-0.8-1.5-1.5-2.2-2.2
		c-0.2-0.2-0.5-0.4-0.3-0.8c0.9-0.9,1.4-2.2,2.5-3.2c4,1.9,7.8,4.1,11.6,6.6C253.9,275.7,251.9,278.1,250.1,280.9z"/>
	<path d="M403,292.5c0,0.7,0.5,1.5,0.2,2.4c-4.3,0-8.6,0-13,0c-0.1,1,0.3,1.9,0.8,2.7c0.5,1,1.2,1.6,1.9,2.3c0.4,0.5,1.8,1,2.4,1
		c3.6,0,7.2,0,10.9,0c0-4.6,0-9.2,0-13.9c0.3,0,0.6,0,1-0.1c0,1.1,0,2.1,0,3.2c1.2-1.6,2.5-2.7,4.4-3.2c1.1-0.3,2.2-0.2,3.2,0
		c1.4,0.3,2.1,1.3,2.5,2.5c0.2,0.4,0.2,0.9,0.3,1.4c0.4,1.8,0.1,3.5,0.2,5.3c0.1,1.8,0,3.6,0,5.4c-0.3,0-0.5,0-0.9,0
		c0-0.2,0-0.5,0-0.7c0-3,0-6,0-9c0-0.8-0.2-1.6-0.6-2.4c-0.5-1.1-1.4-1.9-2.8-1.9c-1.8,0-3.3,0.6-4.5,1.9c-0.4,0.4-0.8,0.8-1.1,1.3
		c-0.4,0.6-0.7,1.3-0.7,2.1c0,2.9,0,5.9,0,8.9c-0.3,0-0.7,0-1,0c-3.4,0-6.8,0-10.1,0c-1.2,0-2.2-0.3-3.1-0.9c-1.3-0.8-2.3-1.9-3-3.3
		c-0.4-0.8-0.7-1.6-0.6-2.6c0-0.4,0-0.8,0-1.1c0.1-3.2,1.7-5.4,4.5-6.8c0.4-0.2,0.9-0.4,1.4-0.3c0.4,0,0.8,0,1.1,0
		c1.3-0.1,2.3,0.5,3.3,1.1c0.8,0.4,1.5,1.1,2,1.8c0.4,0.5,0.6,1.1,0.9,1.7C402.7,291.7,402.8,292,403,292.5z"/>
	<path d="M520,272.2c-0.3-0.1-0.5-0.2-0.6-0.3c-1.3-0.6-2.1-1.6-2.4-2.9c-0.1-0.2-0.1-0.5-0.1-0.7c0-12.3,0-24.6,0-36.9
		c0,0,0-0.1,0-0.1c0.5,0,0.9,0,1.5,0c0,0.3,0,0.6,0,0.9c0,11.7,0,23.4,0,35.1c0,1.2,0.4,2.1,1.2,2.9c0.3,0.3,0.7,0.5,1.2,0.5
		c0.7,0,1.4,0,2,0c0.6,0,1.2-0.2,1.7-0.4c0.2-0.1,0.3,0,0.6-0.1c-0.2,0.6,0.6,1.2-0.1,1.8c-0.8,0.1-1.7,0.2-2.6,0.3
		C521.7,272.2,520.9,272.2,520,272.2z"/>
	<path d="M434.6,294.9c-4.4,0-8.7,0-13.1,0c0.1,0.5,0.1,1,0.3,1.4c0.4,1,0.8,1.9,1.5,2.8c0.8,0.9,1.9,1.5,3.1,1.9
		c0.2,0.1,0.4,0.1,0.6,0.1c3.5,0,7,0,10.5,0c0-4.6,0-9.3,0-13.9c0.3,0,0.6,0,0.9,0c0,0.9,0,1.9,0,3c0.7-1.1,1.5-1.8,2.5-2.4
		c0.9-0.6,2-0.8,3.1-0.7c0,0.3,0,0.5,0,0.9c-0.7,0-1.5,0.1-2.2,0.5c-0.5-0.2-0.7,0.3-0.9,0.5c-1.2,0.8-2,1.8-2.4,3.2
		c-0.1,0.2,0,0.5,0,0.8c0,2.7,0,5.3,0,8c0,0.3,0,0.7,0,1.1c-0.4,0-0.8,0-1.1,0c-3.3,0-6.6,0-9.9,0c-1.3,0-2.5-0.4-3.5-1.2
		c-0.9-0.7-1.7-1.5-2.3-2.5c-0.3-0.6-0.5-1.2-0.7-1.9c-0.2-0.8-0.4-1.7-0.2-2.5c0.2-1.5,0.6-2.9,1.5-4.1c1-1.5,2.4-2.3,4-2.8
		c0.8-0.2,1.8-0.2,2.7-0.1c1.4,0.3,2.8,0.9,3.7,2.1c0.4,0.4,0.8,1,1,1.5c0.4,0.8,0.8,1.6,1,2.4C434.7,293.4,434.6,294.1,434.6,294.9
		z"/>
	<path d="M458.2,290.1c0-0.6,0-1.1,0-1.6c0-0.4,0-0.9,0-1.3c0.4-0.3,0.6-0.1,0.9,0.2c0,1.6,0,3.3,0,5c0,2.9,0,5.8,0,8.7
		c0,0.9-0.1,1.9-0.2,2.8c-0.1,0.4-0.3,0.8-0.5,1.1c-0.9,1.4-2,2.4-3.8,2.5c-0.3,0-0.5,0.2-0.8,0.2c-1.1,0-2.2,0.1-3.3,0
		c-0.8-0.1-1.6-0.4-2.2-0.9c-0.5-0.4-1-0.9-1.5-1.4c-0.3-0.4-0.5-0.8-0.7-1.3c0.1-0.1,0.4-0.2,0.6-0.3c0.4,0.4,0.8,0.9,1.2,1.4
		c0.9,1,2.1,1.4,3.4,1.6c0.6,0.1,1.2,0.3,1.7,0.2c0.5-0.2,1-0.1,1.5-0.2c0.5-0.4,1.2-0.5,1.7-0.9c1-0.8,1.6-1.7,1.9-3
		c0.2-1.3,0.1-2.5,0.2-3.9c-0.9,0.9-1.6,1.6-2.5,2.1c-0.5,0.2-1.8,0.8-2.3,0.8c-0.3,0-0.5,0-0.8,0c-1.5,0.1-2.7-0.4-3.9-1.2
		c-0.2-0.1-0.4-0.3-0.6-0.4c0,0,0-0.1-0.1-0.2c-0.5-0.6-1.2-1.2-1.5-1.9c-0.3-0.6-0.6-1.2-0.8-1.9c-0.3-1.1-0.4-2.2-0.2-3.2
		c0.2-1.3,0.7-2.6,1.6-3.6c1.3-1.5,1.7-1.9,3.7-2.5c0.7-0.2,2.1-0.2,2.8-0.1c1.4,0.2,2.4,1.2,3.5,1.9c0.2,0.1,0.3,0.4,0.4,0.6
		C457.8,289.6,458,289.8,458.2,290.1z"/>
	<path d="M322.4,294.9c-4.3,0-8.6,0-13,0c0.1,0.5,0.1,1,0.2,1.5c0.2,0.6,0.5,1.2,0.8,1.7c0.4,0.8,1,1.4,1.7,1.9
		c0.9,0.6,1.8,1.1,2.9,1.1c0.3,0,0.7,0,1,0c1.2,0.1,2.1-0.5,3-1.1c0.7-0.4,1.1-1.1,1.8-1.8c0,0,0.2,0,0.5,0c0.1,0.6-0.3,1.2-0.6,1.5
		c-0.9,1-2,1.7-3.4,2c-1.8,0.4-2.4,0.3-3.9,0c-0.6-0.1-1.2-0.5-1.7-1c-0.9-0.8-1.9-1.6-2.4-2.8c-0.3-0.6-0.5-1.2-0.6-1.9
		c-0.2-0.7-0.2-1.4-0.2-2.2c0-2,1.5-4.9,3.3-6c1.1-0.7,2.2-1,3.4-1.1c1.7-0.1,3.2,0.4,4.5,1.4c1.3,1,2.1,2.5,2.6,4.1
		C322.5,293.1,322.6,294,322.4,294.9z"/>
	<path d="M333.6,281.2c0.3,0,0.5,0,0.9,0c0,2.9,0,5.8,0,8.8c0.6-0.9,1.3-1.6,2.1-2.1c0.7-0.4,1.3-0.8,2.1-1c0.3-0.1,0.6-0.1,1-0.1
		c0.8,0,1.5-0.1,2.3,0.2c0.8,0.4,1.6,0.9,2,1.7c0.5,0.9,0.7,1.9,0.9,2.9c0.3,1.7,0.1,3.3,0.2,5c0.1,1.7,0,3.4,0,5.1
		c-0.3,0-0.5,0-0.8,0c0-0.1-0.1-0.1-0.1-0.2c0-2.7,0-5.5,0-8.2c0-0.5-0.1-1.1-0.2-1.6c-0.1-0.5,0-1.1-0.3-1.6
		c-0.3-0.7-0.8-1.5-1.6-1.8c-0.3-0.1-0.5-0.3-0.8-0.4c-0.2,0-0.4,0-0.7,0c-1.9,0-3.5,0.7-4.7,2.1c-0.5,0.6-1,1.2-1.3,2.1
		c-0.1,0.3-0.1,0.6-0.1,1c0,2.7,0,5.3,0,8c0,0.3,0,0.5,0,0.8c-0.3,0-0.6,0-0.9,0C333.6,294.9,333.6,288.1,333.6,281.2z"/>
	<path d="M368.5,295.7c1.2-1.1,2.2-2.2,3.4-3.1c1.1-0.8,1.8-1.9,3-2.6c0.3-0.2,0.4-0.5,0.7-0.7c0.9-0.7,1.7-1.5,2.5-2.3
		c0.3,0,0.7,0,1.1,0c-1,0.8-1.6,1.8-2.6,2.3c-0.1,0-0.1,0.1-0.2,0.2c-1.2,1.1-2.4,2.3-3.6,3.4c2.1,2.8,4.2,5.7,6.4,8.6
		c-0.4,0-0.7,0.1-1,0.1c-2-2.7-4-5.4-6.1-8.2c-1.2,1.1-2.4,2.2-3.7,3.4c0,1.5,0,3.1,0,4.8c-0.3,0-0.5,0-0.8,0c0-6.8,0-13.6,0-20.4
		c0.2,0,0.5,0,0.9-0.1C368.5,286,368.5,290.8,368.5,295.7z"/>
	<path d="M363.8,301.7c-0.3,0-0.6,0-0.9,0c0-1.3,0-2.6,0-3.9c0-1.3,0-2.6,0-3.8c0-1.1,0-2.1-0.2-3.2c-0.3-1.2-0.7-2.4-2.1-2.8
		c-0.1,0-0.2-0.2-0.4-0.2c-1.1,0-2.3-0.1-3.3,0.5c-0.2,0.1-0.4,0.2-0.6,0.2c-1.5,1-2.7,2.3-3.3,4.5c0,2.6,0,5.6,0,8.7
		c-0.3,0-0.5,0-0.8,0c0-4.8,0-9.7,0-14.6c0.3,0,0.5,0,0.8,0c0,1,0,2,0,3.3c0.3-0.5,0.5-0.7,0.6-1c1.1-1.4,2.6-2,4.2-2.6
		c1.1,0,2.2-0.2,3.3,0.2c0.7,0.3,1.3,0.7,1.7,1.5c0.6,1,0.9,2.1,0.9,3.3c0,0.9,0.2,1.9,0.2,2.8c0,1,0,2,0,2.9c0,1,0,2,0,2.9
		C363.8,300.8,363.8,301.2,363.8,301.7z"/>
	<path d="M467.8,301.6c-0.5-1.1-0.9-2.1-1.3-3c-0.4-1-1.1-1.9-1.4-2.9c-0.1-0.4-0.4-0.7-0.6-1.1c-0.7-1.7-1.5-3.3-2.3-5
		c-0.4-0.8-0.7-1.6-1.1-2.5c0.3,0,0.6-0.1,0.9-0.1c0.3,0.6,0.7,1.1,0.9,1.7c0.2,0.6,0.5,1.2,0.8,1.7c0.6,1.3,1.2,2.7,1.8,4
		c0.9,2,1.8,4,2.8,6c0.8-1.9,1.7-3.7,2.5-5.5c0.6-1.4,1.2-2.7,1.8-4.1c0.5-1.1,1-2.2,1.5-3.3c0.1-0.2,0.2-0.3,0.3-0.4
		c0.3,0,0.5,0,0.8,0c0,0.1,0.1,0.2,0.1,0.2c-1.1,1.8-1.6,3.8-2.6,5.7c0,0.7-0.5,1.2-0.8,1.8c-0.2,0.6-0.5,1.2-0.7,1.8
		c-0.2,0.6-0.6,1.2-0.9,1.8c-0.4,0.7-0.6,1.5-0.9,2.2c-0.3,0.7-0.6,1.4-1,2.1c-0.6,1.3-1.1,2.7-1.7,4c-0.2,0.4-0.4,0.9-1,1
		c-0.5,0-1,0-1.5,0c0-0.2,0-0.4,0-0.6c0.3,0,0.6-0.1,0.8-0.1c0.8-0.2,0.9-1,1.2-1.5c0-0.1,0-0.2,0-0.3
		C466.7,304,467.3,302.8,467.8,301.6z"/>
	<path d="M325.9,287.9c-0.7,0-1.3,0-2,0c0-0.3,0-0.5,0-0.9c0.6,0,1.3,0,2,0c0-1.7,0-3.3,0-4.9c0.3,0,0.6,0,0.9,0c0,1.6,0,3.2,0,4.9
		c1.2,0,2.4,0,3.7,0c-0.1,0.4-0.2,0.6-0.3,0.9c-1.2,0-2.2,0-3.4,0c0,0.4,0,0.7,0,1c0,3.4,0,6.8,0,10.2c0,0.5,0,1,0.5,1.3
		c0.4,0.3,0.9,0.7,1.4,0.6c0.5-0.2,1-0.1,1.4-0.4c0.2-0.1,0.4-0.2,0.7-0.3c0.2,0.2,0.4,0.3,0.6,0.5c-0.6,0.5-1.1,0.9-1.8,0.9
		c-0.3,0-0.6,0.1-1,0.1c-0.3-0.1-0.7-0.1-1.2-0.2c-0.2-0.2-0.6-0.3-0.9-0.6c-0.2-0.3-0.4-0.7-0.6-1.1
		C325.9,296,325.9,292,325.9,287.9z"/>
	<path d="M533.2,240.6c-0.4,0-0.9,0-1.4,0c-1.8,0-3-0.8-3.9-2.3c-0.9-1.6-0.9-3.2,0-4.8c0-0.1,0.1-0.2,0.1-0.3
		c2.1-2.4,3.9-2.4,5.8-1.8c1.6,0.6,2.7,1.8,2.9,3.4C537.1,237.6,536,239.6,533.2,240.6z"/>
	<path d="M301.5,301.7c-0.3,0-0.6,0-0.9,0c0-4.9,0-9.7,0-14.6c0.2,0,0.5,0,0.9,0c0,1.1,0,2.1,0,3.3c1.2-1.8,3.1-3.5,5.6-3.2
		c0,0.3,0,0.5,0,0.8c-0.1,0-0.2,0.1-0.2,0.1c-2.2,0.1-4.3,1.4-5.2,4c-0.2,0.5-0.2,1-0.2,1.6C301.5,296.2,301.5,298.9,301.5,301.7z"
		/>
	<path d="M347.8,287.1c0.3,0,0.5,0,0.8,0c0,4.8,0,9.7,0,14.6c-0.2,0-0.5,0-0.8,0C347.8,296.8,347.8,292,347.8,287.1z"/>
	<path d="M348.6,283.5c-0.3,0.1-0.5,0.1-0.8,0.2c0-0.7,0-1.3,0-2c0.2,0,0.5,0,0.8,0C348.6,282.2,348.6,282.8,348.6,283.5z"/>
	<path class="st0" d="M417.7,256.6c-8.3,0-16.4,0-24.5,0c-0.2-0.4,0-0.7,0.1-1.1c0.1-0.3,0-0.7,0.1-1.1c0.2-0.8,0.4-1.5,0.6-2.2
		c0.1-0.5,0.5-0.9,0.7-1.4c0.7-1.8,1.9-3.2,3.4-4.3c1.4-1.1,2.9-1.9,4.7-2.2c1.4-0.3,2.9-0.3,4.3-0.1c1.2,0.1,2.4,0.6,3.6,1.1
		c1,0.5,1.9,1.1,2.7,2c0.7,0.7,1.5,1.4,2,2.2c0.6,1.1,1.4,2.1,1.5,3.4c0.1,0.4,0.3,0.8,0.4,1.2c0.1,0.6,0.3,1.2,0.3,1.8
		C417.4,256,417.6,256.3,417.7,256.6z"/>
	<path class="st0" d="M343.2,270.8c-1,0.2-1.9-0.1-2.9-0.2c-0.3,0-0.6-0.2-0.9-0.3c-2-0.8-3.7-2-5-3.7c-1-1.2-1.8-2.5-2.3-4
		c-0.4-1.1-0.6-2.2-0.9-3.2c-0.3-1.2-0.2-2.4-0.2-3.5c0.1-1.2,0.4-2.4,0.9-3.6c0.4-1.1,0.9-2.1,1.6-3c1.1-1.5,2.4-2.8,4-3.7
		c1.2-0.7,2.5-1.1,3.8-1.5c0.7-0.2,1.4,0,2.1,0c2.3-0.1,4.2,0.8,6.1,2c0.6,0.4,1.1,1,1.7,1.4c0.8,0.6,1.3,1.4,1.9,2.1
		c1,1.5,1.7,3,2.1,4.8c0.2,1.1,0.5,2.2,0.4,3.3c-0.1,1.7-0.5,3.3-1.1,5c-0.5,1.4-1.3,2.6-2.2,3.8c-1.2,1.6-2.8,2.5-4.3,3.5
		c-0.6,0.4-1.3,0.6-2,0.7C345.1,270.8,344.2,271,343.2,270.8z"/>
	<path class="st0" d="M507.7,257.3c-0.1,1.1-0.1,2.1-0.3,3.2c-0.1,0.8-0.5,1.5-0.8,2.3c-0.8,2.1-2.1,3.9-3.8,5.3
		c-1.3,1.1-2.7,1.9-4.3,2.5c-0.1,0-0.1,0.1-0.2,0.1c-0.8,0.1-1.5,0.2-2.3,0.2c-0.8,0-1.6,0.1-2.4,0c-0.7-0.2-1.5-0.1-2.2-0.4
		c-0.6-0.3-1.2-0.7-1.8-1c-1-0.6-1.9-1.2-2.6-2c-1.4-1.6-2.6-3.4-3.2-5.4c-0.3-1.1-0.7-2.2-0.7-3.3c0-0.4-0.2-0.9-0.2-1.4
		c0-0.7,0.3-1.3,0.3-1.9c-0.1-0.6,0.2-1.2,0.4-1.8c0.2-0.6,0.4-1.2,0.7-1.7c0.5-1.2,1.3-2.3,2-3.3c0.3-0.4,0.7-0.7,1-1.1
		c0.3-0.5,0.8-0.8,1.3-1.1c0.4-0.3,0.8-0.7,1.3-0.9c0.9-0.3,1.8-0.8,2.7-1c1.4-0.3,2.7-0.2,4.1-0.2c0.9,0.4,1.8,0.4,2.7,0.8
		c1.7,0.8,3.2,1.8,4.4,3.2c0.7,0.8,1.3,1.8,2,2.7c0,0.7,0.6,1.2,0.7,1.8c0.1,0.6,0.5,1.2,0.6,1.8
		C507.5,255.3,507.8,256.3,507.7,257.3z"/>
	<path class="st0" d="M402.1,294c-4.1,0-8.1,0-12.1,0c0.3-2.4,1.1-4.4,3.3-5.6c1.1-0.7,2.4-0.9,3.6-0.6c0.8,0.1,1.6,0.3,2.3,0.8
		c1.5,1.2,1.7,1.4,2.5,3C402,292.3,402.2,293.1,402.1,294z"/>
	<path class="st0" d="M433.8,294c-4.2,0-8.2,0-12.3,0c-0.1-0.9,0.3-1.7,0.6-2.4c0.5-1.5,1.6-2.5,2.8-3.3c0.5-0.3,1-0.5,1.6-0.5
		c1.5-0.2,3,0.1,4.3,0.9c1.2,0.7,2,1.9,2.4,3.2C433.4,292.5,433.6,293.2,433.8,294z"/>
	<path class="st0" d="M455.6,300.2c-0.5,0.2-1,0.5-1.7,0.8c-0.4,0-1,0-1.6,0c-0.9,0.1-1.8-0.3-2.5-0.7c-1.4-0.9-2.4-2.1-2.9-3.7
		c-0.4-1.5-0.5-1.7-0.2-3.4c0.1-0.8,0.3-1.6,0.7-2.3c0.5-1,1.3-1.8,2.2-2.5c0.6-0.4,1.4-0.6,2.2-0.7c1.3-0.2,2.5,0.1,3.7,0.9
		c0.9,0.6,1.7,1.2,2.1,2c0.1,0.2,0.2,0.3,0.3,0.4c0.2,0.4,0.4,0.7,0.4,1.2c0,1.4,0,2.8,0,4.2c0,1.4-0.7,2.4-1.7,3.2
		C456.3,299.9,455.9,300.1,455.6,300.2C455.6,300.3,455.6,300.3,455.6,300.2z"/>
	<path class="st0" d="M321.6,294c-4,0-8,0-12.1,0c-0.3-0.6,0.1-1.1,0.2-1.7c0.2-0.7,0.4-1.4,0.9-2c0.6-0.7,1.1-1.3,1.8-1.8
		c0.5-0.4,1.3-0.7,1.9-0.7c1.6-0.2,3.1,0,4.4,0.9c1.1,0.8,2,1.9,2.4,3.3C321.3,292.6,321.6,293.2,321.6,294z"/>
	<path class="st0" d="M532.9,232.1c0.3,0.2,0.6,0.4,0.8,0.4c1.7,0.6,2.4,2.9,2,4.1c-0.4,1.5-1.2,2.6-2.8,3.1c-1.1,0.4-2,0-2.9-0.5
		c-1-0.5-1.4-1.3-1.7-2.3c-0.4-1.5,0-2.2,0.5-3c0.7-1.2,1.7-1.8,3.1-1.9C532.2,232.1,532.6,232.1,532.9,232.1z"/>
	<path d="M534.2,234c0.1,1.1,0.1,2.2-1.3,2.4c0.5,0.8,1.2,1.4,1.4,2.4c-0.4,0-0.6,0-0.9,0c-0.5-0.8-1-1.6-1.5-2.4
		c-0.2,0-0.4,0-0.7,0c0,0.8,0,1.6,0,2.4c-0.3,0-0.6,0-0.9,0c0-1.8,0-3.7,0-5.6c0.9,0,1.8,0,2.6,0C533.5,233.2,533.8,233.6,534.2,234
		z"/>
	<path class="st0" d="M531.1,233.9c0.8-0.1,1.6,0,2.2,0.5c0,0.3,0,0.5,0,0.8c-0.6,0.5-1.4,0.6-2.2,0.5
		C531.1,235.1,531.1,234.5,531.1,233.9z"/>
</g>
</svg>
